<svg width="1344" height="320" viewBox="0 0 1344 320" xmlns="http://www.w3.org/2000/svg"><path d="M437.593 316.87V32.86H384V0h149.825v32.86h-52.028v284.01zm102.274 0V90.758h41.857v32.078q12.519-20.733 25.036-27.775 12.519-7.041 25.036-7.041h2.739q1.565 0 3.911.39v46.162q-4.693-1.956-10.953-3.129-5.868-1.566-12.127-1.565-9.78 0-17.994 4.694-7.824 4.303-15.648 17.213V316.87zM694.973 320q-13.3 0-23.471-7.433-10.171-7.824-16.039-19.56-5.868-12.126-5.868-25.428 0-21.124 7.042-35.599 7.04-14.474 19.168-24.254 12.518-10.171 28.557-17.604 16.43-7.433 34.424-14.474v-16.039q0-13.692-1.565-22.69t-6.65-13.3q-4.694-4.695-14.474-4.695-8.606 0-14.082 3.912-5.086 3.912-7.433 11.345-2.347 7.041-2.347 16.821v11.345l-41.466-1.565q.782-37.555 17.212-55.159 16.43-17.994 50.855-17.995 33.642 0 47.725 18.387 14.082 18.386 14.082 53.203v103.276q0 10.562.392 20.342.782 9.78 1.564 18.386a424 424 0 0 1 1.956 15.648h-38.336q-1.174-6.258-3.13-15.648-1.564-9.779-2.347-17.603-3.912 13.3-15.256 25.036Q714.533 320 694.973 320m16.43-35.99q6.26 0 11.736-3.521t9.779-7.824q4.303-4.695 5.868-7.433v-64.156q-9.78 5.477-18.386 10.953-8.606 5.477-15.256 11.736-6.26 5.868-10.171 13.692-3.52 7.433-3.521 17.213 0 13.692 5.086 21.516 5.085 7.824 14.865 7.824M882.814 320q-27.775 0-42.249-10.954-14.083-11.344-19.168-31.687-4.694-20.341-4.694-47.335v-52.029q0-28.558 5.085-48.508 5.086-20.343 19.169-30.905 14.473-10.954 41.857-10.954 24.645 0 37.945 8.216 13.692 7.824 18.777 23.863 5.085 15.647 5.085 39.119v13.301h-37.945v-13.692q0-14.865-1.956-23.472-1.956-8.606-7.041-12.518t-14.474-3.912q-10.171 0-15.648 4.694-5.476 4.695-7.432 16.04-1.565 10.953-1.565 30.122v71.198q0 28.948 5.477 38.728t19.559 9.78q10.562 0 15.256-4.694 5.086-5.085 6.259-14.083 1.566-8.998 1.565-20.342v-18.387h37.945v15.648q0 22.689-5.476 39.12-5.086 16.43-18.777 25.037-13.3 8.606-37.554 8.606m159.266 0q-17.61 0-28.56-6.65c-7.04-4.434-12.25-10.693-15.645-18.778q-4.694-12.127-4.694-28.557V118.533h-23.863V90.758h23.863V24.646h41.859v66.112h36.38v27.775h-36.38v144.743c0 8.867 1.43 15.257 4.3 19.169 2.87 3.651 8.35 5.477 16.43 5.477 2.09 0 4.43-.131 7.04-.391q4.305-.392 8.22-.783v30.905c-5.22.782-10.04 1.304-14.48 1.565-4.43.521-9.25.782-14.47.782m46.4-3.13L1155.77 0h42.63l67.68 316.87h-41.86l-14.47-79.804h-64.55l-15.25 79.804zm62.59-111.491h52.81l-26.6-142.787zm149.51 111.491V0H1344v316.87z"/><path fill-rule="evenodd" clip-rule="evenodd" d="M319.972 231.363c.028-3.819.028-7.638.028-11.465V100.095c0-3.82 0-7.639-.028-11.465a445 445 0 0 0-.139-9.656 140 140 0 0 0-1.85-21.017 71 71 0 0 0-6.581-19.987 67.2 67.2 0 0 0-29.385-29.378 71 71 0 0 0-19.979-6.581A141 141 0 0 0 241.023.16a452 452 0 0 0-9.656-.14C227.548 0 223.722 0 219.896 0H100.09c-3.812 0-7.638 0-11.464.02a448 448 0 0 0-9.656.14c-7.04.09-14.066.71-21.022 1.85a71 71 0 0 0-19.965 6.582A67.2 67.2 0 0 0 8.605 37.97a71 71 0 0 0-6.588 19.994 140 140 0 0 0-1.85 21.01 446 446 0 0 0-.14 9.649C0 92.449 0 96.275 0 100.102v119.796c0 3.827 0 7.639.028 11.465.014 3.221.055 6.442.139 9.663a140 140 0 0 0 1.85 21.01 71 71 0 0 0 6.588 19.994 67.2 67.2 0 0 0 29.378 29.371 70.7 70.7 0 0 0 19.972 6.582 140 140 0 0 0 21.022 1.857q4.827.121 9.656.139c3.826.021 7.645.021 11.464.021h119.806c3.819 0 7.638 0 11.464-.021q4.829-.021 9.656-.146c7.04-.083 14.066-.703 21.022-1.85a70.9 70.9 0 0 0 19.972-6.582 67.2 67.2 0 0 0 29.378-29.378 70.8 70.8 0 0 0 6.588-19.987 140.4 140.4 0 0 0 1.85-21.017c.084-3.214.118-6.435.139-9.656M110.531 82.824c-17.967-10.344-38.051 9.74-27.707 27.707l22.653 39.346a20.29 20.29 0 0 1 0 20.246l-22.653 39.346c-10.344 17.967 9.74 38.051 27.707 27.707l39.346-22.653a20.29 20.29 0 0 1 20.246 0l39.346 22.653c17.967 10.344 38.051-9.74 27.707-27.707l-22.653-39.346a20.29 20.29 0 0 1 0-20.246l22.653-39.346c10.344-17.967-9.74-38.051-27.707-27.707l-39.346 22.653a20.29 20.29 0 0 1-20.246 0z"/></svg>