<svg xmlns="http://www.w3.org/2000/svg" version="1.1" xmlns:xlink="http://www.w3.org/1999/xlink" xmlns:svgjs="http://svgjs.dev/svgjs" width="320" height="320"><svg width="320" height="320" viewBox="0 0 320 320" fill="none" xmlns="http://www.w3.org/2000/svg">
<path fill-rule="evenodd" clip-rule="evenodd" d="M320 219.898C320 223.725 320 227.544 319.972 231.363C319.951 234.584 319.917 237.805 319.833 241.019C319.744 248.061 319.126 255.087 317.983 262.036C316.793 268.993 314.574 275.727 311.395 282.023C304.951 294.673 294.667 304.958 282.017 311.401C275.724 314.576 268.993 316.794 262.045 317.983C255.089 319.13 248.063 319.75 241.023 319.833C237.805 319.916 234.586 319.965 231.367 319.979C227.541 320 223.722 320 219.903 320H100.097C96.2783 320 92.4591 320 88.633 319.979C85.4141 319.967 82.1954 319.921 78.9774 319.84C71.9331 319.75 64.9057 319.129 57.9548 317.983C51.0052 316.8 44.2713 314.574 37.9826 311.401C25.3343 304.959 15.0504 294.677 8.60522 282.03C5.42706 275.73 3.20667 268.991 2.01739 262.036C0.874154 255.089 0.255594 248.066 0.166957 241.026C0.0834783 237.805 0.0417391 234.584 0.0278261 231.363C0 227.537 0 223.725 0 219.898V100.102C0 96.2755 0 92.4492 0.0278261 88.623C0.0417391 85.4089 0.0834783 82.1879 0.166957 78.9739C0.255699 71.9341 0.874259 64.9111 2.01739 57.9643C3.20696 51.0074 5.42609 44.2732 8.60522 37.9704C15.0488 25.3201 25.3329 15.0355 37.9826 8.59168C44.2739 5.4184 51.0028 3.20033 57.9478 2.01052C64.9044 0.869603 71.9304 0.250446 78.9704 0.160007C82.1913 0.0765251 85.4122 0.0347841 88.6261 0.0208705C92.4522 0 96.2783 0 100.09 0H219.896C223.722 0 227.548 0 231.367 0.0208705C234.586 0.0328248 237.805 0.0792062 241.023 0.160007C248.063 0.250446 255.089 0.869603 262.038 2.01052C268.995 3.20014 275.722 5.41937 282.017 8.59168C294.67 15.0336 304.957 25.3185 311.402 37.9704C314.577 44.2683 316.795 51.0047 317.983 57.9573C319.126 64.9065 319.745 71.9318 319.833 78.9739C319.917 82.1949 319.958 85.4159 319.972 88.6299C320 92.4562 320 96.2755 320 100.095V219.898Z" fill="black"></path>
<path d="M81.9725 111.886C71.3162 94.1017 91.0468 73.6702 109.192 83.6994L148.927 105.662C155.255 109.16 162.967 109.025 169.17 105.308L208.114 81.9726C225.898 71.3163 246.33 91.0469 236.301 109.192L214.338 148.927C210.84 155.255 210.975 162.968 214.692 169.17L238.027 208.115C248.684 225.898 228.953 246.33 210.808 236.301L171.073 214.338C164.745 210.84 157.032 210.975 150.83 214.692L111.886 238.028C94.1016 248.684 73.6701 228.953 83.6993 210.808L105.662 171.074C109.16 164.745 109.025 157.033 105.308 150.83L81.9725 111.886Z" fill="white"></path>
</svg><style>@media (prefers-color-scheme: light) { :root { filter: none; } }
@media (prefers-color-scheme: dark) { :root { filter: none; } }
</style></svg>